<?xml version="1.0" encoding="UTF-8" standalone="no"?>
<svg viewBox="0 0 248 195"
    xmlns="http://www.w3.org/2000/svg"
    xmlns:svg="http://www.w3.org/2000/svg">
    <path d="M225.745 177.895C220.991 182.985 215.543 187.379 209.563 190.95C209.426 191.034 209.286 191.113 209.147 191.195L199.465 182.626C199.567 182.532 199.679 182.426 199.801 182.309C207.014 175.46 242.826 127.567 245.213 115.905C245.048 116.876 247.366 154.979 225.745 177.895Z" fill="#F0F0F0" />
    <path d="M211.431 192.603C211.248 192.647 211.062 192.688 210.875 192.725L203.612 186.296C203.754 186.247 203.919 186.188 204.109 186.123C207.225 185.019 216.507 181.688 225.744 177.894C235.669 173.815 245.547 169.207 247.671 166.255C247.215 166.941 233.178 187.74 211.431 192.603Z" fill="#F0F0F0" />
    <path d="M204.61 51.1385H203.576V22.8029C203.576 20.6492 203.152 18.5166 202.328 16.5269C201.504 14.5372 200.296 12.7292 198.773 11.2064C197.25 9.68351 195.442 8.47549 193.452 7.65132C191.462 6.82715 189.33 6.40295 187.176 6.40295H127.143C124.99 6.40295 122.857 6.82714 120.867 7.65131C118.878 8.47547 117.07 9.68348 115.547 11.2063C114.024 12.7292 112.816 14.5371 111.992 16.5268C111.168 18.5166 110.743 20.6491 110.743 22.8028V178.254C110.743 180.408 111.168 182.54 111.992 184.53C112.816 186.52 114.024 188.328 115.547 189.851C117.07 191.374 118.878 192.582 120.867 193.406C122.857 194.23 124.99 194.654 127.143 194.654H187.176C189.33 194.654 191.462 194.23 193.452 193.406C195.442 192.582 197.25 191.374 198.773 189.851C200.295 188.328 201.503 186.52 202.328 184.53C203.152 182.541 203.576 180.408 203.576 178.254V71.3082H204.61V51.1385Z" fill="#3F3D56" />
    <path d="M200.085 22.9155V178.141C200.085 179.749 199.768 181.342 199.153 182.828C198.537 184.313 197.635 185.663 196.497 186.801C195.36 187.938 194.01 188.839 192.523 189.455C191.037 190.07 189.445 190.386 187.836 190.385H127.514C125.906 190.386 124.314 190.069 122.828 189.454C121.343 188.838 119.993 187.936 118.856 186.799C117.719 185.662 116.817 184.312 116.201 182.827C115.586 181.341 115.269 179.749 115.27 178.141V22.9155C115.269 21.3075 115.586 19.7152 116.201 18.2295C116.817 16.7438 117.719 15.394 118.856 14.2569C119.993 13.1199 121.343 12.2179 122.828 11.6026C124.314 10.9873 125.906 10.6707 127.514 10.6708H134.835C134.475 11.5543 134.339 12.5126 134.437 13.4614C134.534 14.4102 134.864 15.3204 135.396 16.1119C135.928 16.9035 136.647 17.5521 137.489 18.0008C138.33 18.4495 139.269 18.6845 140.223 18.6851H174.614C175.569 18.686 176.509 18.452 177.351 18.0037C178.194 17.5555 178.913 16.9067 179.446 16.1147C179.978 15.3227 180.308 14.4119 180.405 13.4624C180.502 12.513 180.364 11.5543 180.003 10.6708H187.836C189.445 10.6702 191.037 10.9865 192.523 11.6016C194.01 12.2167 195.36 13.1185 196.497 14.2556C197.635 15.3927 198.537 16.7427 199.153 18.2286C199.768 19.7145 200.085 21.3071 200.085 22.9155Z" fill="white" />
    <path d="M181.321 103.579H128.3C127.372 103.578 126.481 103.208 125.824 102.552C125.168 101.895 124.798 101.005 124.797 100.076V98.3324C124.798 97.4037 125.168 96.5134 125.824 95.8567C126.481 95.2 127.372 94.8306 128.3 94.8296H181.321C182.25 94.8306 183.14 95.2 183.797 95.8567C184.454 96.5134 184.823 97.4037 184.824 98.3324V100.076C184.823 101.005 184.454 101.895 183.797 102.552C183.14 103.208 182.25 103.578 181.321 103.579Z" fill="#F0F0F0" />
    <path d="M181.321 118.608H128.3C127.372 118.607 126.481 118.238 125.824 117.581C125.168 116.925 124.798 116.034 124.797 115.106V113.362C124.798 112.433 125.168 111.543 125.824 110.886C126.481 110.23 127.372 109.86 128.3 109.859H181.321C182.25 109.86 183.14 110.23 183.797 110.886C184.454 111.543 184.823 112.433 184.824 113.362V115.106C184.823 116.034 184.454 116.925 183.797 117.581C183.14 118.238 182.25 118.607 181.321 118.608Z" fill="#F0F0F0" />
    <path d="M183.973 100.217H130.952C129.977 100.216 129.042 99.8284 128.353 99.1389C127.663 98.4494 127.276 97.5145 127.274 96.5394V94.7959C127.276 93.8208 127.663 92.8859 128.353 92.1964C129.042 91.5069 129.977 91.119 130.952 91.1179H183.973C184.949 91.119 185.883 91.5069 186.573 92.1964C187.262 92.8859 187.65 93.8208 187.651 94.7959V96.5394C187.65 97.5145 187.262 98.4494 186.573 99.1389C185.883 99.8284 184.949 100.216 183.973 100.217ZM130.952 91.8185C130.163 91.8194 129.406 92.1333 128.848 92.6915C128.29 93.2497 127.976 94.0065 127.975 94.7959V96.5394C127.976 97.3288 128.29 98.0856 128.848 98.6438C129.406 99.202 130.163 99.516 130.952 99.5168H183.973C184.763 99.516 185.52 99.202 186.078 98.6438C186.636 98.0856 186.95 97.3288 186.951 96.5394V94.7959C186.95 94.0065 186.636 93.2497 186.078 92.6915C185.52 92.1333 184.763 91.8194 183.973 91.8185H130.952Z" fill="#3F3D56" />
    <path d="M183.973 115.247H130.952C129.977 115.246 129.042 114.858 128.353 114.169C127.663 113.479 127.276 112.544 127.274 111.569V109.826C127.276 108.85 127.663 107.916 128.353 107.226C129.042 106.537 129.977 106.149 130.952 106.148H183.973C184.949 106.149 185.883 106.537 186.573 107.226C187.262 107.916 187.65 108.85 187.651 109.826V111.569C187.65 112.544 187.262 113.479 186.573 114.169C185.883 114.858 184.949 115.246 183.973 115.247ZM130.952 106.848C130.163 106.849 129.406 107.163 128.848 107.721C128.29 108.279 127.976 109.036 127.975 109.826V111.569C127.976 112.358 128.29 113.115 128.848 113.673C129.406 114.232 130.163 114.546 130.952 114.546H183.973C184.763 114.546 185.52 114.232 186.078 113.673C186.636 113.115 186.95 112.358 186.951 111.569V109.826C186.95 109.036 186.636 108.279 186.078 107.721C185.52 107.163 184.763 106.849 183.973 106.848H130.952Z" fill="#3F3D56" />
    <path d="M200.085 22.9155V56.6791C194.72 58.0906 189.103 58.2525 183.666 57.1525C178.229 56.0525 173.116 53.7198 168.722 50.3339C164.328 46.9481 160.768 42.5993 158.318 37.6222C155.868 32.645 154.593 27.1722 154.59 21.6247C154.59 20.6346 154.63 19.6547 154.709 18.6851H174.615C175.569 18.686 176.509 18.452 177.351 18.0037C178.194 17.5555 178.913 16.9067 179.446 16.1147C179.978 15.3227 180.308 14.4119 180.405 13.4624C180.502 12.513 180.364 11.5543 180.003 10.6708H187.836C189.445 10.6702 191.037 10.9865 192.523 11.6016C194.01 12.2167 195.36 13.1185 196.497 14.2556C197.635 15.3927 198.537 16.7427 199.153 18.2286C199.769 19.7145 200.085 21.3071 200.085 22.9155Z" fill="#F0F0F0" />
    <path d="M145.749 188.277C145.749 188.988 145.722 189.691 145.665 190.385H127.514C125.906 190.385 124.314 190.069 122.828 189.453C121.343 188.838 119.993 187.936 118.856 186.799C117.719 185.662 116.817 184.312 116.201 182.827C115.586 181.341 115.269 179.749 115.27 178.141V161.537C119.074 161.042 122.94 161.364 126.611 162.481C130.281 163.598 133.672 165.485 136.556 168.015C139.44 170.545 141.751 173.661 143.337 177.155C144.922 180.648 145.744 184.44 145.749 188.277H145.749Z" fill="#444444" />
    <path d="M36.6088 100.298L24.8572 91.3101L15.8692 103.062L27.6208 112.05L36.6088 100.298Z" fill="#F0F0F0" />
    <path d="M20.194 20.064C22.0508 20.0625 23.8821 20.4958 25.5413 21.3293C27.2004 22.1628 28.6414 23.3732 29.7488 24.8636L36.6107 15.8915L16.0216 0.144287L0.274414 20.7335L9.14828 27.5206C10.0363 25.3182 11.5624 23.4315 13.5306 22.1028C15.4988 20.7741 17.8193 20.0641 20.194 20.064Z" fill="#F0F0F0" />
    <path d="M247.65 194.855H0.350282C0.257382 194.855 0.168286 194.818 0.102595 194.752C0.0369044 194.687 0 194.597 0 194.505C0 194.412 0.0369044 194.323 0.102595 194.257C0.168286 194.191 0.257382 194.154 0.350282 194.154H247.65C247.743 194.154 247.832 194.191 247.897 194.257C247.963 194.323 248 194.412 248 194.505C248 194.597 247.963 194.687 247.897 194.752C247.832 194.818 247.743 194.855 247.65 194.855Z" fill="#3F3D56" />
    <path d="M166.292 136.732H141.12C140.191 136.731 139.3 136.362 138.644 135.705C137.987 135.048 137.618 134.158 137.617 133.229V131.486C137.618 130.557 137.987 129.667 138.644 129.01C139.3 128.353 140.191 127.984 141.12 127.983H166.292C167.22 127.984 168.111 128.353 168.767 129.01C169.424 129.667 169.793 130.557 169.794 131.486V133.229C169.793 134.158 169.424 135.048 168.767 135.705C168.111 136.362 167.22 136.731 166.292 136.732Z" fill="#444444" />
    <path d="M168.944 133.371H143.772C142.797 133.37 141.862 132.982 141.172 132.293C140.483 131.603 140.095 130.668 140.094 129.693V127.95C140.095 126.974 140.483 126.04 141.172 125.35C141.862 124.661 142.797 124.273 143.772 124.272H168.944C169.919 124.273 170.854 124.661 171.543 125.35C172.233 126.04 172.621 126.974 172.622 127.95V129.693C172.621 130.668 172.233 131.603 171.543 132.293C170.854 132.982 169.919 133.37 168.944 133.371ZM143.772 124.972C142.982 124.973 142.226 125.287 141.667 125.845C141.109 126.403 140.795 127.16 140.794 127.95V129.693C140.795 130.483 141.109 131.239 141.667 131.797C142.226 132.356 142.982 132.67 143.772 132.671H168.944C169.733 132.67 170.49 132.356 171.048 131.797C171.606 131.239 171.92 130.483 171.921 129.693V127.95C171.92 127.16 171.606 126.403 171.048 125.845C170.49 125.287 169.733 124.973 168.944 124.972H143.772Z" fill="#3F3D56" />
    <path d="M50.6238 34.9517C61.2003 30.4531 74.3735 33.3034 87.2386 35.2815C87.3583 32.886 88.8094 29.9704 87.2893 28.2991C85.4426 26.2687 85.6126 24.1352 86.7239 21.9895C89.5656 16.5025 85.4942 10.6641 81.3833 5.80948C80.4568 4.71775 79.2858 3.85996 77.9655 3.30578C76.6451 2.75161 75.2127 2.51668 73.7845 2.62008L66.1695 3.16401C64.3165 3.29637 62.548 3.99149 61.1009 5.15636C59.6537 6.32124 58.5968 7.9003 58.0716 9.68227C56.2533 12.1552 55.2801 14.6213 55.8928 17.0746C53.1692 18.9358 52.7117 21.1825 53.9355 23.7153C54.9733 25.31 54.9622 26.8623 53.8883 28.3716C52.4779 30.2959 51.3977 32.4416 50.6919 34.7206L50.6238 34.9517Z" fill="#2F2E41" />
    <path d="M105.532 67.9961L82.8749 80.0415L82.5881 70.0036C89.9832 68.7691 97.0188 66.6198 103.524 63.1206L105.894 57.2662C106.152 56.6283 106.572 56.0685 107.112 55.6417C107.651 55.215 108.293 54.936 108.973 54.8321C109.654 54.7282 110.349 54.803 110.992 55.0492C111.635 55.2953 112.202 55.7044 112.639 56.2362C113.278 57.0142 113.598 58.0061 113.533 59.0109C113.468 60.0157 113.024 60.9583 112.29 61.6477L105.532 67.9961Z" fill="#FFB8B8" />
    <path d="M50.1724 137.542C50.0071 136.936 49.972 136.301 50.0694 135.681C50.1669 135.06 50.3946 134.467 50.7376 133.94L55.7146 126.302C56.8918 124.496 58.6981 123.191 60.7831 122.641C62.868 122.09 65.083 122.335 66.9982 123.325C64.9065 126.886 65.1981 130.009 67.7206 132.724C63.8047 134.635 60.1855 137.103 56.9751 140.049C56.389 140.449 55.716 140.702 55.012 140.789C54.308 140.876 53.5934 140.793 52.9279 140.548C52.2623 140.303 51.665 139.902 51.1857 139.379C50.7064 138.856 50.359 138.226 50.1724 137.542Z" fill="#2F2E41" />
    <path d="M106.564 127.555C105.811 128.81 104.747 129.85 103.476 130.577C102.205 131.303 100.769 131.69 99.3051 131.701L66.2408 131.951L64.8069 123.634L79.4334 119.332L67.1012 109.868L80.5806 94.0944L105.063 116.913C106.494 118.247 107.424 120.031 107.697 121.968C107.97 123.905 107.57 125.877 106.564 127.555Z" fill="#2F2E41" />
    <path d="M61.0786 184.435H53.3351C46.3826 136.778 39.3056 88.9881 60.2182 71.1508L84.8826 75.1659L81.7279 96.1019L67.9617 111.876L61.0786 184.435Z" fill="#2F2E41" />
    <path d="M67.8856 195.23C67.2794 195.396 66.6451 195.431 66.0244 195.334C65.4037 195.236 64.8106 195.009 64.2841 194.666L55.8763 193.535C54.0696 192.358 52.7646 190.552 52.2144 188.467C51.6642 186.382 51.9081 184.167 52.8988 182.252C56.4594 184.344 59.5828 184.052 62.297 181.529C64.2148 185.401 67.3747 185.165 70.3925 188.428C70.7921 189.014 71.0458 189.687 71.1326 190.391C71.2194 191.095 71.1368 191.809 70.8915 192.475C70.6462 193.14 70.2455 193.738 69.7226 194.217C69.1998 194.696 68.5699 195.044 67.8856 195.23Z" fill="#2F2E41" />
    <path d="M79.4335 39.3165L65.0938 35.8749C67.4754 31 67.6715 25.5756 66.5277 19.8144L76.2787 19.5276C76.5843 26.6918 77.5086 33.3849 79.4335 39.3165Z" fill="#FFB8B8" />
    <path d="M83.3746 83.8012C72.9358 90.9145 65.56 84.0446 59.9315 73.4452C60.7136 66.9594 59.4472 59.1977 57.1017 50.7641C56.0586 47.0442 56.4481 43.0685 58.1932 39.6218C59.9382 36.1751 62.9121 33.5078 66.5277 32.1467L78.8599 37.3091C89.3314 45.8445 91.3924 55.0901 87.4638 64.8414L83.3746 83.8012Z" fill="#444444" />
    <path d="M53.3353 46.4864L41.8635 52.5091L62.2259 64.5545L65.0592 71.5433C65.2483 72.0097 65.3404 72.5098 65.33 73.0131C65.3195 73.5163 65.2066 74.0121 64.9983 74.4703C64.7899 74.9285 64.4904 75.3395 64.118 75.6781C63.7457 76.0168 63.3082 76.2761 62.8324 76.4402C62.2915 76.6267 61.7147 76.6855 61.1473 76.6119C60.5799 76.5383 60.0372 76.3343 59.5618 76.016C59.0864 75.6977 58.6911 75.2736 58.4069 74.777C58.1227 74.2804 57.9573 73.7248 57.9237 73.1536L57.6372 68.2828L31.7568 59.7423C30.8848 59.4545 30.0897 58.9721 29.4318 58.3316C28.7739 57.691 28.2703 56.9092 27.9593 56.0452C27.5059 54.7859 27.4829 53.4118 27.8937 52.138C28.3045 50.8641 29.126 49.7624 30.2297 49.0052L51.0409 34.7278L53.3353 46.4864Z" fill="#FFB8B8" />
    <path d="M64.807 47.6336C60.0225 45.5369 55.6719 47.8146 50.1805 49.6412L49.3201 34.4411C54.7729 31.5348 59.9717 30.7512 64.807 33.0071L64.807 47.6336Z" fill="#444444" />
    <path d="M70.5304 27.0569C75.5868 27.0569 79.6858 22.9578 79.6858 17.9015C79.6858 12.8451 75.5868 8.74609 70.5304 8.74609C65.474 8.74609 61.375 12.8451 61.375 17.9015C61.375 22.9578 65.474 27.0569 70.5304 27.0569Z" fill="#FFB8B8" />
    <path d="M81.4831 16.7463C72.4185 17.6341 65.5114 16.1516 61.0969 11.9305V8.53113H80.7139L81.4831 16.7463Z" fill="#2F2E41" />

</svg>